:FULLY-SPECIFIED
:FORCE-ALL-JOINTS-BE-3DOF
:DEGREES
883
root 3.86281 16.5149 30.5387 -10.8012 22.8974 0.165399
lfemur -15.457 19.1192 -19.788
ltibia 40.3371 -0 0
lfoot -13.435 -3.03495 -0.00750268
ltoes -0.700948 0 0
rfemur -77.4976 -23.9972 34.7341
rtibia 96.8865 -0 0
rfoot 16.3244 23.2932 -0.0357439
rtoes -13.5574 0 0
lowerback 15.0705 -3.70069 -7.18433
upperback 4.98236 -5.97281 -2.6305
thorax -2.6451 -2.95437 2.22702
lowerneck -7.5297 -3.32439 1.63725
upperneck 4.05738 -4.89758 4.87901
head 2.7045 -2.2404 1.05765
lclavicle 2.75814e-014 2.22639e-014 0
lhumerus -34.319 -39.7975 88.3858
lradius 62.0468 -0 0
lwrist 20.6447 0 0
lhand 24.2566 11.4845 0.00656898
lfingers 7.12502 -0 0
lthumb 48.4748 33.4498 -0.000883679
rclavicle 2.75814e-014 2.22639e-014 0
rhumerus -48.3706 -27.0843 -49.1137
rradius 72.9646 -0 0
rwrist -21.5587 0 0
rhand -40.6317 -42.4548 -0.0500425
rfingers 7.12502 -0 0
rthumb -13.5762 -71.9815 -0.0502396
884
root 3.84501 16.5166 30.6116 -10.1699 23.5379 -0.0585672
lfemur -16.2867 20.1664 -19.6502
ltibia 40.6885 -0 0
lfoot -13.6101 -2.76215 -0.0100037
ltoes -0.6003 0 0
rfemur -74.9185 -24.8464 32.7941
rtibia 98.4363 -0 0
rfoot 16.4876 21.9005 -0.0476728
rtoes -12.211 0 0
lowerback 14.3593 -3.8345 -7.1269
upperback 4.69098 -6.09653 -2.5137
thorax -2.5493 -3.01491 2.28373
lowerneck -7.53765 -3.54 1.4606
upperneck 4.16696 -5.17778 4.93143
head 2.75789 -2.3782 1.09025
lclavicle 2.75814e-014 2.22639e-014 0
lhumerus -35.2496 -40.4245 89.7597
lradius 62.1075 -0 0
lwrist 19.852 0 0
lhand 24.5766 11.6152 0.00875879
lfingers 7.12502 -0 0
lthumb 48.7682 33.4306 -0.00117825
rclavicle 2.75814e-014 2.22639e-014 0
rhumerus -48.1156 -25.9857 -51.2018
rradius 75.4765 -0 0
rwrist -21.2689 0 0
rhand -40.1491 -43.1147 -0.0667302
rfingers 7.12502 -0 0
rthumb -13.1107 -72.6685 -0.0669932
885
root 3.82721 16.5183 30.6846 -9.53817 24.1806 -0.275896
lfemur -17.1195 21.2154 -19.5276
ltibia 41.0399 -0 0
lfoot -13.7852 -2.48935 -0.0116711
ltoes -0.499652 0 0
rfemur -72.2919 -25.6145 30.8009
rtibia 99.986 -0 0
rfoot 16.6512 20.5077 -0.0556294
rtoes -10.8646 0 0
lowerback 13.6478 -3.96759 -7.0678
upperback 4.39928 -6.21966 -2.39624
thorax -2.45356 -3.07553 2.34034
lowerneck -7.54495 -3.75564 1.28394
upperneck 4.27634 -5.45807 4.98335
head 2.81122 -2.51604 1.12272
lclavicle 2.75814e-014 2.22639e-014 0
lhumerus -36.2085 -41.0341 91.1597
lradius 62.1681 -0 0
lwrist 19.0593 0 0
lhand 24.8966 11.7458 0.0102187
lfingers 7.12502 -0 0
lthumb 49.0616 33.4114 -0.00137464
rclavicle 2.75814e-014 2.22639e-014 0
rhumerus -47.9072 -24.8796 -53.2655
rradius 77.9884 -0 0
rwrist -20.9791 0 0
rhand -39.6662 -43.7747 -0.0778571
rfingers 7.12502 -0 0
rthumb -12.6451 -73.3557 -0.0781642
886
root 3.8094 16.5199 30.7575 -8.90589 24.8255 -0.48652
lfemur -17.956 22.2659 -19.4207
ltibia 41.3913 -0 0
lfoot -13.9603 -2.21655 -0.0125049
ltoes -0.399003 0 0
rfemur -69.6208 -26.2984 28.7581
rtibia 101.536 -0 0
rfoot 16.8148 19.1149 -0.0596089
rtoes -9.51817 0 0
lowerback 12.936 -4.09994 -7.00705
upperback 4.10725 -6.34219 -2.27812
thorax -2.35787 -3.13626 2.39685
lowerneck -7.55157 -3.9713 1.10726
upperneck 4.38552 -5.73846 5.03475
head 2.86447 -2.6539 1.15508
lclavicle 2.75814e-014 2.22639e-014 0
lhumerus -37.1959 -41.6255 92.5861
lradius 62.2288 -0 0
lwrist 18.2666 0 0
lhand 25.2167 11.8765 0.0109487
lfingers 7.12502 -0 0
lthumb 49.355 33.3922 -0.00147284
rclavicle 2.75814e-014 2.22639e-014 0
rhumerus -47.7443 -23.7675 -55.3068
rradius 80.5004 -0 0
rwrist -20.6893 0 0
rhand -39.1832 -44.4347 -0.0834212
rfingers 7.12502 -0 0
rthumb -12.1794 -74.0429 -0.0837503
887
root 3.7916 16.5216 30.8305 -8.27289 25.4724 -0.690366
lfemur -18.7968 23.3178 -19.3296
ltibia 41.7427 -0 0
lfoot -14.1354 -1.94374 -0.0125049
ltoes -0.298355 0 0
rfemur -66.9092 -26.8953 26.6704
rtibia 103.085 -0 0
rfoot 16.9786 17.722 -0.0596089
rtoes -8.17176 0 0
lowerback 12.224 -4.23153 -6.94463
upperback 3.81491 -6.46412 -2.15934
thorax -2.26223 -3.19707 2.45327
lowerneck -7.55754 -4.18697 0.93056
upperneck 4.4945 -6.01895 5.08564
head 2.91765 -2.7918 1.1873
lclavicle 2.75814e-014 2.22639e-014 0
lhumerus -38.212 -42.1982 94.0391
lradius 62.2894 -0 0
lwrist 17.474 0 0
lhand 25.5367 12.0072 0.0109487
lfingers 7.12502 -0 0
lthumb 49.6485 33.3731 -0.00147284
rclavicle 2.75814e-014 2.22639e-014 0
rhumerus -47.6258 -22.6508 -57.3277
rradius 83.0123 -0 0
rwrist -20.3994 0 0
rhand -38.7003 -45.0948 -0.0834212
rfingers 7.12502 -0 0
rthumb -11.7137 -74.7301 -0.0837503
